<svg xmlns="http://www.w3.org/2000/svg" viewBox="0 0 1600 1000" role="img" aria-label="Jardin con luces calidas">
  <defs>
    <linearGradient id="sky" x1="0" x2="1" y1="0" y2="1">
      <stop offset="0" stop-color="#9fc9d5"/>
      <stop offset=".48" stop-color="#7c8762"/>
      <stop offset="1" stop-color="#6f5241"/>
    </linearGradient>
    <radialGradient id="light" cx=".5" cy=".5" r=".5">
      <stop offset="0" stop-color="#fff3bd"/>
      <stop offset=".34" stop-color="#e6c36a" stop-opacity=".9"/>
      <stop offset="1" stop-color="#e6c36a" stop-opacity="0"/>
    </radialGradient>
    <filter id="blur">
      <feGaussianBlur stdDeviation="7"/>
    </filter>
  </defs>
  <rect width="1600" height="1000" fill="url(#sky)"/>
  <path d="M0 740 C220 680 340 760 540 710 C780 650 930 720 1120 670 C1300 620 1450 660 1600 610 L1600 1000 L0 1000 Z" fill="#46543c" opacity=".72"/>
  <path d="M0 820 C260 760 420 850 620 792 C860 724 1080 812 1300 750 C1430 712 1520 724 1600 700 L1600 1000 L0 1000 Z" fill="#26302e" opacity=".58"/>
  <g opacity=".45">
    <path d="M144 0 C164 240 128 458 188 736" fill="none" stroke="#26302e" stroke-width="26"/>
    <path d="M1390 0 C1348 230 1418 452 1354 770" fill="none" stroke="#26302e" stroke-width="32"/>
    <path d="M992 0 C1030 236 970 470 1042 752" fill="none" stroke="#26302e" stroke-width="24"/>
  </g>
  <path d="M90 230 C380 130 670 170 960 110 C1160 70 1380 112 1540 50" fill="none" stroke="#2f3b34" stroke-width="6" opacity=".55"/>
  <g filter="url(#blur)">
    <circle cx="150" cy="212" r="34" fill="url(#light)"/>
    <circle cx="330" cy="170" r="28" fill="url(#light)"/>
    <circle cx="510" cy="156" r="31" fill="url(#light)"/>
    <circle cx="690" cy="150" r="27" fill="url(#light)"/>
    <circle cx="870" cy="118" r="34" fill="url(#light)"/>
    <circle cx="1050" cy="90" r="29" fill="url(#light)"/>
    <circle cx="1230" cy="82" r="32" fill="url(#light)"/>
    <circle cx="1410" cy="72" r="30" fill="url(#light)"/>
  </g>
  <g opacity=".26" fill="#fbfaf7">
    <circle cx="240" cy="490" r="110"/>
    <circle cx="1220" cy="420" r="140"/>
    <circle cx="780" cy="520" r="90"/>
  </g>
</svg>
